# xmcd
#
# Track frame offsets: 
#        182
#        19767
#        35447
#        49222
#        66777
#        88262
#        107580
#        117970
#        129537
#        143405
#        158220
#        171587
#        186192
#        198515
#        213957
#        224617
#        237152
#        248767
#        259605
#        274362
#
# Disc length: 3810 seconds
#
# Revision: 2
# Processed by: cddbd v1.5.2PL0 Copyright (c) Steve Scherf et al.
# Submitted via: ExactAudioCopy v0.95b4
#
DISCID=2c0ee014
DTITLE=Various Artist - Masters of Flamenco Guitar
DYEAR=1997
DGENRE=Flamenco
TTITLE0=Sabicas 1961 - Zapateado
TTITLE1=Sabicas 1961 - Taranta 'Camino de Linares'
TTITLE2=Sabicas 1961 - Bulerias 'Con un Clavel'
TTITLE3=Sabicas 1961 - Alegrias 'Salero Gaditano'
TTITLE4=Sabicas 1961 - Farruca 'El Albacin'
TTITLE5=Niño Ricardo 1970 - Siguiriyas 'Serrana Juncal'
TTITLE6=Niño Ricardo 1970 - Fandangos 'Marisma de Huelva'
TTITLE7=Niño Ricardo 1970 - Soleares 'Gitana Gaditana'
TTITLE8=Niño Ricardo 1970 - Malgueña 'Velez-Malaga'
TTITLE9=Niño Ricardo 1970 - Zapateado
TTITLE10=Manolo De Huelva 1961 - Pregon 'Liego el Frutero'
TTITLE11=Manolo De Huelva 1961 - Fandangos por Solea 'Yo No Me Huberia
TTITLE11=Perdido'
TTITLE12=Manolo De Huelva 1961 - Malagueña 'No Te Hagas Ilusiones'
TTITLE13=Manolo De Huelva 1961 - Fandangos 'Ese Me Gusto Seria'
TTITLE14=Melchor De Marchena 1959 - Bulerias
TTITLE15=Melchor De Marchena 1959 - Tanguillos de Cadiz
TTITLE16=Melchor De Marchena 1959 - Sevillanas
TTITLE17=Melchor De Marchena 1959 - Peteneras
TTITLE18=Melchor De Marchena 1959 - Serranas
TTITLE19=Melchor De Marchena 1959 - Soleares
EXTD=Hemisphere EMI - Release 7243 8 59273 2 4\nCodec LAME 3.89 @ 192k
EXTD=bps
EXTT0=
EXTT1=
EXTT2=
EXTT3=
EXTT4=
EXTT5=
EXTT6=
EXTT7=
EXTT8=
EXTT9=
EXTT10=
EXTT11=
EXTT12=
EXTT13=
EXTT14=
EXTT15=
EXTT16=
EXTT17=
EXTT18=
EXTT19=
PLAYORDER=
